<?xml version="1.0" encoding="UTF-8"?><svg id="_イヤー_1" xmlns="http://www.w3.org/2000/svg" viewBox="0 0 116.64 80.98"><defs><style>.cls-1{fill:#9e9e9f;}.cls-2{fill:#e50012;}.cls-3{fill:#717071;}.cls-4{fill:#595757;}</style></defs><g><g><path class="cls-2" d="M0,49.34H2.64c1.51,0,2.53,.07,3.06,.2,.76,.19,1.37,.57,1.85,1.15s.72,1.31,.72,2.18-.23,1.61-.7,2.18-1.11,.96-1.93,1.16c-.6,.14-1.72,.22-3.37,.22h-.94v6.15H0v-13.24Zm1.32,1.3v4.49l2.24,.03c.91,0,1.57-.08,1.99-.25,.42-.16,.75-.43,.99-.8,.24-.37,.36-.78,.36-1.23s-.12-.85-.36-1.22-.56-.63-.95-.79c-.39-.16-1.04-.23-1.93-.23H1.32Z"/><path class="cls-1" d="M15.34,52.53c1.51,0,2.76,.55,3.75,1.64,.9,1,1.35,2.17,1.35,3.54s-.48,2.56-1.43,3.59-2.18,1.53-3.67,1.53-2.73-.51-3.68-1.53-1.43-2.22-1.43-3.59,.45-2.53,1.35-3.53c.99-1.1,2.24-1.65,3.76-1.65Zm0,1.23c-1.05,0-1.95,.39-2.7,1.16s-1.13,1.71-1.13,2.81c0,.71,.17,1.37,.51,1.98,.34,.61,.81,1.08,1.39,1.42,.58,.33,1.22,.5,1.92,.5s1.34-.17,1.92-.5c.58-.33,1.05-.81,1.39-1.42,.34-.61,.51-1.27,.51-1.98,0-1.1-.38-2.03-1.13-2.81-.76-.77-1.65-1.16-2.7-1.16Z"/><path class="cls-1" d="M22.3,52.78h1.29v1.43c.38-.56,.79-.99,1.21-1.26s.87-.42,1.33-.42c.35,0,.72,.11,1.12,.33l-.66,1.06c-.26-.11-.49-.17-.67-.17-.42,0-.82,.17-1.21,.52s-.69,.88-.89,1.61c-.16,.56-.23,1.69-.23,3.38v3.31h-1.29v-9.79Z"/><path class="cls-1" d="M29.41,49.15h1.26v3.64h2v1.09h-2v8.7h-1.26v-8.7h-1.72v-1.09h1.72v-3.64Z"/><path class="cls-1" d="M39.19,52.53c1.51,0,2.76,.55,3.75,1.64,.9,1,1.35,2.17,1.35,3.54s-.48,2.56-1.43,3.59-2.18,1.53-3.67,1.53-2.73-.51-3.68-1.53-1.43-2.22-1.43-3.59,.45-2.53,1.35-3.53c.99-1.1,2.24-1.65,3.76-1.65Zm0,1.23c-1.05,0-1.95,.39-2.7,1.16s-1.13,1.71-1.13,2.81c0,.71,.17,1.37,.51,1.98,.34,.61,.81,1.08,1.39,1.42,.58,.33,1.22,.5,1.92,.5s1.34-.17,1.92-.5c.58-.33,1.05-.81,1.39-1.42,.34-.61,.51-1.27,.51-1.98,0-1.1-.38-2.03-1.13-2.81-.76-.77-1.65-1.16-2.7-1.16Z"/><path class="cls-2" d="M56.4,49v13.57h-1.24v-1.68c-.53,.64-1.12,1.12-1.78,1.45s-1.38,.49-2.15,.49c-1.39,0-2.57-.5-3.55-1.51s-1.47-2.23-1.47-3.67,.49-2.62,1.48-3.62,2.18-1.5,3.57-1.5c.8,0,1.53,.17,2.18,.51s1.22,.85,1.71,1.54v-5.58h1.24Zm-5.03,4.74c-.7,0-1.35,.17-1.94,.52-.59,.34-1.07,.83-1.42,1.45s-.53,1.28-.53,1.98,.18,1.35,.53,1.98,.83,1.12,1.42,1.47c.6,.35,1.24,.53,1.92,.53s1.34-.17,1.96-.52c.62-.35,1.09-.82,1.42-1.41,.33-.59,.5-1.26,.5-2,0-1.13-.37-2.08-1.12-2.84-.75-.76-1.66-1.14-2.75-1.14Z"/><path class="cls-1" d="M67.49,59.32l1.06,.56c-.35,.68-.75,1.24-1.21,1.66s-.97,.74-1.54,.96-1.22,.33-1.94,.33c-1.6,0-2.85-.52-3.75-1.57-.9-1.05-1.35-2.23-1.35-3.55,0-1.24,.38-2.35,1.14-3.32,.97-1.24,2.26-1.85,3.88-1.85s3,.63,4,1.9c.71,.89,1.07,2.01,1.08,3.35h-8.81c.02,1.14,.39,2.07,1.09,2.8,.7,.73,1.57,1.09,2.6,1.09,.5,0,.98-.09,1.45-.26,.47-.17,.87-.4,1.2-.69,.33-.29,.69-.75,1.07-1.39Zm0-2.64c-.17-.67-.41-1.21-.73-1.61s-.75-.73-1.27-.97c-.53-.25-1.08-.37-1.67-.37-.96,0-1.79,.31-2.48,.93-.5,.45-.89,1.12-1.14,2.02h7.3Z"/><path class="cls-1" d="M71.04,49h1.26v13.57h-1.26v-13.57Z"/><path class="cls-1" d="M74.73,49h1.26v13.57h-1.26v-13.57Z"/><path class="cls-3" d="M79.4,48.75c.43,0,.8,.16,1.11,.47,.31,.31,.46,.69,.46,1.13s-.15,.81-.46,1.12c-.31,.31-.67,.46-1.09,.46s-.81-.16-1.12-.47-.46-.7-.46-1.15,.15-.8,.46-1.11c.31-.31,.67-.46,1.1-.46Zm-1.23,4.03h2.46v9.79h-2.46v-9.79Z"/><path class="cls-3" d="M90.09,49h2.46v13.57h-2.46v-1.03c-.48,.46-.96,.78-1.44,.99s-1,.3-1.57,.3c-1.26,0-2.36-.49-3.28-1.47-.92-.98-1.38-2.2-1.38-3.66s.45-2.75,1.34-3.72,1.98-1.45,3.25-1.45c.59,0,1.14,.11,1.65,.33,.52,.22,.99,.55,1.43,1v-4.86Zm-2.58,5.79c-.76,0-1.39,.27-1.89,.81s-.75,1.23-.75,2.06,.26,1.54,.77,2.09c.51,.55,1.14,.82,1.89,.82s1.41-.27,1.92-.81c.51-.54,.76-1.24,.76-2.11s-.25-1.54-.76-2.07c-.51-.53-1.15-.79-1.93-.79Z"/><path class="cls-3" d="M104.83,58.39h-7.89c.11,.7,.42,1.25,.91,1.66s1.13,.62,1.89,.62c.92,0,1.71-.32,2.37-.96l2.07,.97c-.52,.73-1.13,1.27-1.85,1.62s-1.57,.53-2.56,.53c-1.54,0-2.79-.48-3.75-1.45s-1.45-2.18-1.45-3.64,.48-2.73,1.44-3.72,2.17-1.48,3.62-1.48c1.54,0,2.8,.49,3.76,1.48s1.45,2.29,1.45,3.91v.47Zm-2.47-1.93c-.16-.55-.48-.99-.96-1.33-.48-.34-1.03-.51-1.66-.51-.68,0-1.29,.19-1.8,.58-.32,.24-.62,.66-.9,1.27h5.33Z"/><path class="cls-3" d="M116.63,58.39h-7.89c.11,.7,.42,1.25,.91,1.66s1.13,.62,1.89,.62c.92,0,1.71-.32,2.37-.96l2.07,.97c-.52,.73-1.13,1.27-1.85,1.62s-1.57,.53-2.56,.53c-1.54,0-2.79-.48-3.75-1.45s-1.45-2.18-1.45-3.64,.48-2.73,1.44-3.72,2.17-1.48,3.62-1.48c1.54,0,2.8,.49,3.76,1.48s1.45,2.29,1.45,3.91v.47Zm-2.47-1.93c-.16-.55-.48-.99-.96-1.33-.48-.34-1.03-.51-1.66-.51-.68,0-1.29,.19-1.8,.58-.32,.24-.62,.66-.9,1.27h5.33Z"/></g><path class="cls-2" d="M37.36,43.95c-.86,0-1.66-.54-1.94-1.4l-6.36-19.08c-.21-.62-.1-1.31,.28-1.84s1-.85,1.66-.85h14.04V10.14c0-1.13,.92-2.05,2.05-2.05h9.18V2.05c0-1.13,.92-2.05,2.05-2.05h8.23c1.13,0,2.05,.92,2.05,2.05v6.04h5.44c1.13,0,2.05,.92,2.05,2.05v10.64h9.55c.61,0,1.18,.27,1.57,.73,.39,.46,.55,1.08,.45,1.67l-3.37,19.08c-.2,1.11-1.26,1.86-2.37,1.66-1.11-.2-1.86-1.26-1.66-2.37l2.94-16.68h-9.16c-1.13,0-2.05-.92-2.05-2.05V12.19h-5.44c-1.13,0-2.05-.92-2.05-2.05V4.09h-4.14v6.04c0,1.13-.92,2.05-2.05,2.05h-9.18v10.64c0,1.13-.92,2.05-2.05,2.05h-13.25l5.46,16.39c.36,1.07-.22,2.23-1.3,2.59-.21,.07-.43,.11-.65,.11Z"/></g><g><path class="cls-4" d="M21.87,78.85c.1,.19,.22,.34,.38,.45,.16,.11,.35,.2,.56,.26,.21,.06,.44,.08,.67,.08,.16,0,.32-.01,.5-.04,.18-.03,.34-.08,.5-.15s.29-.18,.39-.31c.1-.13,.16-.29,.16-.5,0-.21-.07-.39-.21-.52-.14-.13-.32-.24-.54-.33s-.47-.17-.76-.23-.57-.14-.86-.22c-.3-.07-.59-.16-.87-.27-.28-.11-.53-.25-.76-.42-.22-.17-.4-.38-.54-.64s-.21-.57-.21-.93c0-.41,.09-.76,.26-1.06,.17-.3,.4-.55,.68-.75,.28-.2,.6-.35,.96-.44,.36-.1,.71-.14,1.07-.14,.42,0,.81,.05,1.2,.14,.38,.09,.72,.24,1.02,.45,.3,.21,.53,.47,.71,.8,.17,.32,.26,.71,.26,1.17h-1.69c-.02-.24-.06-.43-.15-.59s-.2-.28-.34-.37c-.14-.09-.3-.15-.48-.19s-.38-.06-.6-.06c-.14,0-.28,.01-.42,.04-.14,.03-.27,.08-.38,.16-.11,.07-.21,.17-.28,.28s-.11,.25-.11,.42c0,.16,.03,.28,.09,.38,.06,.1,.18,.19,.35,.27,.17,.08,.42,.16,.72,.24,.31,.08,.71,.19,1.21,.31,.15,.03,.35,.08,.62,.16,.26,.08,.52,.2,.78,.37,.26,.17,.48,.4,.67,.68s.28,.65,.28,1.1c0,.36-.07,.7-.21,1.01-.14,.31-.35,.58-.63,.81-.28,.23-.62,.4-1.03,.53-.41,.13-.89,.19-1.43,.19-.44,0-.86-.05-1.27-.16s-.78-.28-1.09-.51c-.32-.23-.57-.52-.75-.88-.19-.36-.27-.78-.27-1.27h1.69c0,.27,.05,.49,.14,.68Z"/><path class="cls-4" d="M29.5,72.86v6.48h3.87v1.47h-5.62v-7.94h1.75Z"/><path class="cls-4" d="M34.27,75.22c.18-.51,.43-.95,.77-1.33,.33-.38,.74-.67,1.23-.89,.49-.21,1.03-.32,1.64-.32s1.16,.11,1.65,.32c.48,.22,.89,.51,1.22,.89,.33,.38,.59,.82,.77,1.33,.18,.51,.27,1.06,.27,1.65s-.09,1.12-.27,1.62c-.18,.5-.43,.94-.77,1.31-.33,.37-.74,.66-1.22,.87-.48,.21-1.03,.32-1.65,.32s-1.16-.11-1.64-.32c-.49-.21-.9-.5-1.23-.87-.33-.37-.59-.81-.77-1.31-.18-.5-.27-1.04-.27-1.62s.09-1.14,.27-1.65Zm1.6,2.63c.08,.32,.2,.6,.37,.85,.17,.25,.39,.45,.67,.61,.27,.15,.61,.23,1,.23s.73-.08,1-.23c.27-.15,.5-.35,.67-.61,.17-.25,.29-.54,.37-.85s.12-.64,.12-.97-.04-.69-.12-1.01c-.08-.33-.2-.62-.37-.87-.17-.26-.39-.46-.67-.61-.27-.15-.61-.23-1-.23s-.73,.08-1,.23c-.27,.15-.5,.36-.67,.61-.17,.26-.29,.55-.37,.87-.08,.33-.12,.66-.12,1.01s.04,.66,.12,.97Z"/><path class="cls-4" d="M48.83,80.81l-1.35-5.41h-.02l-1.32,5.41h-1.77l-2.1-7.94h1.75l1.26,5.41h.02l1.38-5.41h1.64l1.36,5.47h.02l1.3-5.47h1.71l-2.14,7.94h-1.74Z"/><path class="cls-4" d="M61.17,79.16c-.05,.31-.17,.6-.36,.87-.19,.27-.45,.5-.8,.68-.35,.18-.82,.27-1.41,.27-.33,0-.66-.05-.97-.14s-.59-.24-.83-.43c-.24-.2-.44-.45-.59-.76s-.22-.68-.22-1.12v-.69h1.58v.36c0,.19,.01,.37,.04,.53,.03,.16,.08,.3,.16,.42s.18,.21,.31,.27,.3,.1,.51,.1c.23,0,.41-.04,.53-.12,.13-.08,.22-.19,.27-.32s.09-.27,.1-.42,.02-.3,.02-.44v-5.36h1.75v5.44c0,.26-.03,.55-.08,.86Z"/><path class="cls-4" d="M68.63,80.2c-.6,.52-1.43,.78-2.49,.78s-1.91-.26-2.5-.78c-.59-.52-.88-1.32-.88-2.4v-4.94h1.75v4.94c0,.22,.02,.43,.06,.63s.11,.39,.23,.55c.12,.16,.28,.29,.5,.39,.21,.1,.49,.15,.85,.15,.62,0,1.05-.14,1.29-.42,.24-.28,.36-.71,.36-1.31v-4.94h1.75v4.94c0,1.08-.3,1.87-.9,2.4Z"/><path class="cls-4" d="M72.78,72.86v7.94h-1.75v-7.94h1.75Z"/><path class="cls-4" d="M79.41,74.98c-.1-.17-.23-.31-.39-.44s-.33-.22-.53-.29-.4-.11-.62-.11c-.39,0-.73,.08-1,.23-.27,.15-.5,.36-.67,.61-.17,.26-.29,.55-.37,.87-.08,.33-.12,.66-.12,1.01s.04,.66,.12,.97,.2,.6,.37,.85c.17,.25,.39,.45,.67,.61,.27,.15,.61,.23,1,.23,.53,0,.95-.16,1.25-.49,.3-.33,.48-.76,.55-1.29h1.69c-.04,.5-.16,.95-.34,1.35-.19,.4-.43,.74-.73,1.02-.3,.28-.66,.5-1.07,.65-.41,.15-.86,.22-1.35,.22-.61,0-1.16-.11-1.64-.32-.49-.21-.9-.5-1.23-.87-.33-.37-.59-.81-.77-1.31-.18-.5-.27-1.04-.27-1.62s.09-1.14,.27-1.65c.18-.51,.43-.95,.77-1.33,.33-.38,.74-.67,1.23-.89,.49-.21,1.03-.32,1.64-.32,.44,0,.85,.06,1.24,.19,.39,.13,.74,.31,1.05,.55,.31,.24,.56,.54,.76,.9,.2,.36,.33,.76,.38,1.22h-1.69c-.03-.2-.1-.38-.2-.55Z"/><path class="cls-4" d="M88.5,72.86v1.47h-4.19v1.7h3.85v1.36h-3.85v1.95h4.28v1.47h-6.03v-7.94h5.94Z"/><path class="cls-4" d="M94.05,72.86c.36,0,.68,.06,.96,.17,.29,.12,.53,.27,.73,.47,.2,.2,.36,.43,.47,.7,.11,.26,.16,.55,.16,.85,0,.47-.1,.87-.29,1.21-.2,.34-.52,.6-.96,.78v.02c.22,.06,.39,.15,.53,.27,.14,.12,.26,.27,.34,.43,.09,.17,.15,.35,.19,.55,.04,.2,.07,.4,.08,.6,0,.13,.01,.27,.02,.45,0,.17,.02,.34,.04,.52,.02,.18,.05,.35,.09,.51,.04,.16,.1,.29,.18,.41h-1.75c-.1-.25-.16-.55-.18-.9-.02-.35-.06-.68-.1-1-.06-.42-.19-.72-.38-.91-.19-.19-.51-.29-.95-.29h-1.75v3.1h-1.75v-7.94h4.28Zm-.62,3.59c.4,0,.7-.09,.9-.27,.2-.18,.3-.47,.3-.87s-.1-.67-.3-.84c-.2-.17-.5-.26-.9-.26h-1.91v2.24h1.91Z"/></g></svg>